<?xml version="1.0" encoding="utf-8"?>
<!-- Generator: Adobe Illustrator 18.1.1, SVG Export Plug-In . SVG Version: 6.00 Build 0)  -->
<svg version="1.1" id="Layer_1" xmlns="http://www.w3.org/2000/svg" xmlns:xlink="http://www.w3.org/1999/xlink" x="0px" y="0px"
	 viewBox="-75 77 48 48" enable-background="new -75 77 48 48" xml:space="preserve">
<ellipse opacity="0.19" enable-background="new    " cx="-51.5" cy="121.7" rx="10.4" ry="3.3"/>
<path fill="#35B59E" d="M-51.5,77c-9.4,0-17,7.5-17,16.8s17,28,17,28s17-18.7,17-28S-42.1,77-51.5,77z"/>
<circle fill="#329E89" cx="-51.5" cy="92.5" r="4.2"/>
<path fill="#218773" d="M-51.5,89.2c2.2,0,3.9,1.6,4.2,3.8c0-0.2,0.1-0.3,0.1-0.5c0-2.3-1.9-4.2-4.2-4.2s-4.2,1.9-4.2,4.2
	c0,0.2,0,0.3,0.1,0.5C-55.4,90.9-53.7,89.2-51.5,89.2z"/>
</svg>
