<?xml version="1.0" encoding="utf-8"?>
<!-- Generator: Adobe Illustrator 18.1.1, SVG Export Plug-In . SVG Version: 6.00 Build 0)  -->
<svg version="1.1" id="Layer_1" xmlns="http://www.w3.org/2000/svg" xmlns:xlink="http://www.w3.org/1999/xlink" x="0px" y="0px"
	 viewBox="0 0 200 200" enable-background="new 0 0 200 200" xml:space="preserve">
<path fill="#D5DDDF" d="M68.8,68.1l-1,1c-2.2,2.2-2.2,5.8,0,8l0.4,0.4c2.2,2.2,5.8,2.2,8,0l7.5-7.5l1-1c2.2-2.2,2.2-5.8,0-8
	l-0.4-0.4c-2.2-2.2-5.8-2.2-8,0L68.8,68.1z M85.3,71.6L77.8,79c-2.2,2.2-2.2,5.8,0,8l0.4,0.4c2.2,2.2,5.8,2.2,8,0l1-1l6.5-6.5l1-1
	c2.2-2.2,2.2-5.8,0-8l-0.4-0.4c-2.2-2.2-5.8-2.2-8,0L85.3,71.6z M109.9,107.8l-33.3,33.3c-2.8,2.8-7.3,2.8-10.1,0l-5.7-5.7l-6.1,6.1
	c0,0-9,9-21.3,6.4c-0.1,0-0.2,0-0.3-0.1c-0.5-0.1-1.1-0.3-1.6-0.4c-0.4-0.1-0.9-0.3-1.4-0.5c-0.4-0.2-0.9-0.3-1.3-0.5
	c-0.9-0.4-1.8-0.8-2.7-1.4c-0.3-0.2-0.6-0.4-0.8-0.5c-0.8-0.5-1.5-1-2.3-1.6c-0.3-0.2-0.6-0.5-0.9-0.7c-1-0.8-2.1-1.7-3.1-2.8
	C7,127.6,7.5,117.1,9.8,111.8c0,0,1.8-6.6,4-14.5c0.6-2.2,1.3-4.6,1.9-6.9L1.8,76.5c-2.8-2.8-2.8-7.3,0-10.1L35.1,33
	c2.8-2.8,7.3-2.8,10.1,0l19.3,19.3l1.8-1.8c2.2-2.2,5.8-2.2,8,0l0.4,0.4c2.2,2.2,2.2,5.8,0,8l-1,1l-6.5,6.5l-1,1
	c-2.2,2.2-5.8,2.2-8,0l-0.4-0.4c-2.2-2.2-2.2-5.8,0-8l1-1l0,0l2.2-2.2L44.7,39.5L8.3,75.9l8.9,8.9c1.5-5.4,2.9-10.2,3.6-12.5
	c2.3-7.2,8-6.9,10.7-2.5c2.1,3.4,0.5,11-0.6,19.7c-0.2,1.7-0.8,4.5-1.5,7.5l36.3,36.3l36.4-36.4l-2.7-2.7l-3.2,3.2
	c-2.2,2.2-5.8,2.2-8,0l-0.4-0.4c-2.2-2.2-2.2-5.8,0-8l1-1l6.5-6.5l1-1c2.2-2.2,5.8-2.2,8,0l0.4,0.4c2.2,2.2,2.2,5.8,0,8l-1,1l0,0
	l-0.8,0.8l7,7C112.7,100.5,112.7,105.1,109.9,107.8z M16.8,59.9c0.3,0.3,0.9,0.3,1.2,0l10.7-10.7c0.3-0.3,0.3-0.9,0-1.2
	c-0.3-0.3-0.9-0.3-1.2,0L16.8,58.7C16.4,59,16.4,59.6,16.8,59.9z M90.7,116.9c-1.4-1.4-3.7-1.4-5.1,0c-1.4,1.4-1.4,3.7,0,5.1
	c1.4,1.4,3.7,1.4,5.1,0C92.1,120.6,92.1,118.3,90.7,116.9z"/>
</svg>
